/* XPM */
static char * aaplot_icon_xpm[] = {
"88 88 4 1",
" 	c None",
".	c #FF1E1E",
"+	c #1E38FF",
"@	c #1EFF33",
"                                                                                        ",
"                                    ............                                        ",
"                                    .............                                       ",
"                                    ..............                                      ",
"                                    ....     ......                                     ",
"                                    ....      .....                                     ",
"                                    ....       ....                                     ",
"                                    ....        ...                                     ",
"                                    ....        ...                                     ",
"                                    ....       ....                                     ",
"                                    ....     ......                                     ",
"                                    ..............                                      ",
"                                    .............                                       ",
"                                    ............                                        ",
"                                    ....                                                ",
"                                    ....             ...                                ",
"                                    ....             ...                       ...      ",
"                                    ....             ...                       ...      ",
"                                    ....             ...                       ...      ",
"                                    ....             ...                       ...      ",
"                                    ....             ...                       ...      ",
"   ........          ........       ....             ...        .......      .........  ",
"  ...........       ..........      ....             ...      ...........    .........  ",
"  ...........       ...........     ....             ...     .............   .........  ",
"  ...   ......      ...   ......    ....             ...     .....   .....     ...      ",
"          ....              ....    ....             ...    .....     .....    ...      ",
"           ...               ...    ....             ...    ....       ....    ...      ",
"   ...........       ...........    ....             ...    ....       ....    ...      ",
"  ............      ............    ....             ...    ...         ...    ...      ",
" .............     .............    ....             ...    ...         ...    ...      ",
" .....     ...     ....      ...    ....             ...    ....       ....    ...      ",
" ...      ....     ...      ....    ....             ...    ....       ....    ...      ",
" ...      ....     ...      ....    ....             ...    .....     .....    ...      ",
" .....  ......     ....   ......    ....             ...     .....  ......     ....     ",
" .............     .............    ....             ...     .............     ........ ",
"  ........ ...      ........ ...    ....             ...      ...........       ....... ",
"   ......  ...       ......  ...    ....             ...        .......          ...... ",
"                                    ....                                                ",
"                                    ....                                                ",
"                                    ....                                                ",
"                                    ....                                                ",
"                                    ....                                                ",
"                                    ....                                                ",
"      +++                           ....                                                ",
"      +++                           ....                                                ",
"      +++                           ....                                                ",
"      +++                           ....                                                ",
"      +++                                                                             @@",
"      +++                                                                            @@@",
"      +++                                                @@@@                       @@@@",
"      +++                                               @@@@@@                     @@@@@",
"      +++                                              @@@@@@@@                   @@@@@@",
"      +++                                             @@@@@@@@@@@                @@@@@@ ",
"      +++                  @@@@@                     @@@@@@@@@@@@@               @@@@@  ",
"      +++                 @@@@@@@@                  @@@@@@   @@@@@@             @@@@@   ",
"      +++                @@@@@@@@@@                @@@@@      @@@@@@            @@@@@   ",
"      +++               @@@@@@@@@@@@@              @@@@@       @@@@@@@          @@@@@   ",
"      +++              @@@@@@@@@@@@@@@@          @@@@@@         @@@@@@@@@      @@@@@    ",
"      +++              @@@@@   @@@@@@@@@@@@@@@@@@@@@@@           @@@@@@@@@@@@@@@@@@     ",
"      +++             @@@@@       @@@@@@@@@@@@@@@@@@@             @@@@@@@@@@@@@@@@      ",
"      +++            @@@@@@        @@@@@@@@@@@@@@@@@                @@@@@@@@@@@@@       ",
"      +++            @@@@@           @@@@@@@@@@@@@@                  @@@@@@@@@@@        ",
"      +++           @@@@@@             @@@@@@@@@@@                       @@@@@@         ",
"      +++           @@@@@                                                               ",
"      +++          @@@@@                                                                ",
"      +++          @@@@@                                                                ",
"      +++         @@@@@                                                                 ",
"      +++         @@@@@                                                                 ",
"      +++        @@@@@@                                                                 ",
"      +++        @@@@@                                                                  ",
"      +++       @@@@@                                                                   ",
"      +++      @@@@@                                                                    ",
"      +++     @@@@@                                                                     ",
"      +++     @@@@@                                                                     ",
"      +++    @@@@@                                                                      ",
"      +++   @@@@@                                                                       ",
"      +++  @@@@@@                                                                       ",
"      +++  @@@@@                                                                        ",
"      +++ @@@@@                                                                         ",
"      +++ @@@@                                                                          ",
"      +++@@@@@                                                                          ",
"      +++++++++++++++++++++++++++++++++++++++++++++++++++++++++++++++++++++             ",
"      +++++++++++++++++++++++++++++++++++++++++++++++++++++++++++++++++++++             ",
"      +++++++++++++++++++++++++++++++++++++++++++++++++++++++++++++++++++++             ",
"                                                                                        ",
"                                                                                        ",
"                                                                                        ",
"                                                                                        "};
